<mxfile host="Electron" agent="Mozilla/5.0 (X11; Linux x86_64) AppleWebKit/537.36 (KHTML, like Gecko) draw.io/25.0.2 Chrome/128.0.6613.186 Electron/32.2.7 Safari/537.36" version="25.0.2">
  <diagram name="Page-1" id="MqZeGh7VGKmyVvnbTxtp">
    <mxGraphModel dx="406" dy="412" grid="1" gridSize="10" guides="1" tooltips="1" connect="1" arrows="1" fold="1" page="1" pageScale="1" pageWidth="827" pageHeight="1169" background="#444444" math="0" shadow="0">
      <root>
        <mxCell id="0" />
        <mxCell id="1" parent="0" />
        <mxCell id="hCfFOBcKqYTTyQITyhyD-1" value="a" style="rounded=1;whiteSpace=wrap;html=1;fillColor=#333333;fontFamily=monospace;" parent="1" vertex="1">
          <mxGeometry x="10" y="330" width="40" height="40" as="geometry" />
        </mxCell>
        <mxCell id="hCfFOBcKqYTTyQITyhyD-3" value="a" style="rounded=1;whiteSpace=wrap;html=1;fillColor=#333333;fontFamily=monospace;" parent="1" vertex="1">
          <mxGeometry x="150" y="330" width="40" height="40" as="geometry" />
        </mxCell>
        <mxCell id="hCfFOBcKqYTTyQITyhyD-4" value="a" style="rounded=1;whiteSpace=wrap;html=1;fillColor=#333333;fontFamily=monospace;" parent="1" vertex="1">
          <mxGeometry x="290" y="330" width="40" height="40" as="geometry" />
        </mxCell>
        <mxCell id="hCfFOBcKqYTTyQITyhyD-8" style="edgeStyle=orthogonalEdgeStyle;rounded=0;orthogonalLoop=1;jettySize=auto;html=1;fontFamily=monospace;fontSize=12;fontColor=default;" parent="1" source="hCfFOBcKqYTTyQITyhyD-5" target="hCfFOBcKqYTTyQITyhyD-1" edge="1">
          <mxGeometry relative="1" as="geometry" />
        </mxCell>
        <mxCell id="hCfFOBcKqYTTyQITyhyD-5" value="E = a" style="rounded=1;whiteSpace=wrap;html=1;fillColor=#333333;fontFamily=monospace;" parent="1" vertex="1">
          <mxGeometry x="5" y="250" width="50" height="40" as="geometry" />
        </mxCell>
        <mxCell id="hCfFOBcKqYTTyQITyhyD-9" style="edgeStyle=orthogonalEdgeStyle;rounded=0;orthogonalLoop=1;jettySize=auto;html=1;fontFamily=monospace;fontSize=12;fontColor=default;" parent="1" source="hCfFOBcKqYTTyQITyhyD-6" target="hCfFOBcKqYTTyQITyhyD-3" edge="1">
          <mxGeometry relative="1" as="geometry" />
        </mxCell>
        <mxCell id="hCfFOBcKqYTTyQITyhyD-6" value="E = a" style="rounded=1;whiteSpace=wrap;html=1;fillColor=#333333;fontFamily=monospace;" parent="1" vertex="1">
          <mxGeometry x="145" y="250" width="50" height="40" as="geometry" />
        </mxCell>
        <mxCell id="hCfFOBcKqYTTyQITyhyD-10" style="edgeStyle=orthogonalEdgeStyle;rounded=0;orthogonalLoop=1;jettySize=auto;html=1;fontFamily=monospace;fontSize=12;fontColor=default;" parent="1" source="hCfFOBcKqYTTyQITyhyD-7" target="hCfFOBcKqYTTyQITyhyD-4" edge="1">
          <mxGeometry relative="1" as="geometry" />
        </mxCell>
        <mxCell id="hCfFOBcKqYTTyQITyhyD-7" value="E = a" style="rounded=1;whiteSpace=wrap;html=1;fillColor=#333333;fontFamily=monospace;" parent="1" vertex="1">
          <mxGeometry x="285" y="170" width="50" height="40" as="geometry" />
        </mxCell>
        <mxCell id="hCfFOBcKqYTTyQITyhyD-16" style="edgeStyle=orthogonalEdgeStyle;rounded=0;orthogonalLoop=1;jettySize=auto;html=1;fontFamily=monospace;fontSize=12;fontColor=default;" parent="1" source="hCfFOBcKqYTTyQITyhyD-11" target="hCfFOBcKqYTTyQITyhyD-14" edge="1">
          <mxGeometry relative="1" as="geometry" />
        </mxCell>
        <mxCell id="hCfFOBcKqYTTyQITyhyD-17" style="rounded=0;orthogonalLoop=1;jettySize=auto;html=1;fontFamily=monospace;fontSize=12;fontColor=default;" parent="1" source="hCfFOBcKqYTTyQITyhyD-11" target="hCfFOBcKqYTTyQITyhyD-5" edge="1">
          <mxGeometry relative="1" as="geometry" />
        </mxCell>
        <mxCell id="hCfFOBcKqYTTyQITyhyD-18" style="rounded=0;orthogonalLoop=1;jettySize=auto;html=1;fontFamily=monospace;fontSize=12;fontColor=default;" parent="1" source="hCfFOBcKqYTTyQITyhyD-11" target="hCfFOBcKqYTTyQITyhyD-6" edge="1">
          <mxGeometry relative="1" as="geometry" />
        </mxCell>
        <mxCell id="hCfFOBcKqYTTyQITyhyD-11" value="E = E+E" style="rounded=1;whiteSpace=wrap;html=1;fillColor=#333333;fontFamily=monospace;" parent="1" vertex="1">
          <mxGeometry x="70" y="170" width="60" height="40" as="geometry" />
        </mxCell>
        <mxCell id="hCfFOBcKqYTTyQITyhyD-12" value="*" style="rounded=1;whiteSpace=wrap;html=1;fillColor=#333333;fontFamily=monospace;" parent="1" vertex="1">
          <mxGeometry x="220" y="330" width="40" height="40" as="geometry" />
        </mxCell>
        <mxCell id="hCfFOBcKqYTTyQITyhyD-19" style="edgeStyle=none;shape=connector;rounded=0;orthogonalLoop=1;jettySize=auto;html=1;strokeColor=default;align=center;verticalAlign=middle;fontFamily=monospace;fontSize=12;fontColor=default;labelBackgroundColor=default;endArrow=classic;" parent="1" source="hCfFOBcKqYTTyQITyhyD-13" target="hCfFOBcKqYTTyQITyhyD-12" edge="1">
          <mxGeometry relative="1" as="geometry" />
        </mxCell>
        <mxCell id="hCfFOBcKqYTTyQITyhyD-20" style="edgeStyle=none;shape=connector;rounded=0;orthogonalLoop=1;jettySize=auto;html=1;strokeColor=default;align=center;verticalAlign=middle;fontFamily=monospace;fontSize=12;fontColor=default;labelBackgroundColor=default;endArrow=classic;" parent="1" source="hCfFOBcKqYTTyQITyhyD-13" target="hCfFOBcKqYTTyQITyhyD-7" edge="1">
          <mxGeometry relative="1" as="geometry" />
        </mxCell>
        <mxCell id="hCfFOBcKqYTTyQITyhyD-21" style="edgeStyle=none;shape=connector;rounded=0;orthogonalLoop=1;jettySize=auto;html=1;strokeColor=default;align=center;verticalAlign=middle;fontFamily=monospace;fontSize=12;fontColor=default;labelBackgroundColor=default;endArrow=classic;" parent="1" source="hCfFOBcKqYTTyQITyhyD-13" target="hCfFOBcKqYTTyQITyhyD-11" edge="1">
          <mxGeometry relative="1" as="geometry" />
        </mxCell>
        <mxCell id="hCfFOBcKqYTTyQITyhyD-13" value="E = E*E" style="rounded=1;whiteSpace=wrap;html=1;fillColor=#333333;fontFamily=monospace;" parent="1" vertex="1">
          <mxGeometry x="210" y="90" width="60" height="40" as="geometry" />
        </mxCell>
        <mxCell id="hCfFOBcKqYTTyQITyhyD-14" value="+" style="rounded=1;whiteSpace=wrap;html=1;fillColor=#333333;fontFamily=monospace;" parent="1" vertex="1">
          <mxGeometry x="80" y="330" width="40" height="40" as="geometry" />
        </mxCell>
        <mxCell id="hCfFOBcKqYTTyQITyhyD-22" value="a" style="rounded=1;whiteSpace=wrap;html=1;fillColor=#333333;fontFamily=monospace;" parent="1" vertex="1">
          <mxGeometry x="400" y="330" width="40" height="40" as="geometry" />
        </mxCell>
        <mxCell id="hCfFOBcKqYTTyQITyhyD-23" value="a" style="rounded=1;whiteSpace=wrap;html=1;fillColor=#333333;fontFamily=monospace;" parent="1" vertex="1">
          <mxGeometry x="540" y="330" width="40" height="40" as="geometry" />
        </mxCell>
        <mxCell id="hCfFOBcKqYTTyQITyhyD-24" value="a" style="rounded=1;whiteSpace=wrap;html=1;fillColor=#333333;fontFamily=monospace;" parent="1" vertex="1">
          <mxGeometry x="680" y="330" width="40" height="40" as="geometry" />
        </mxCell>
        <mxCell id="hCfFOBcKqYTTyQITyhyD-25" style="edgeStyle=orthogonalEdgeStyle;rounded=0;orthogonalLoop=1;jettySize=auto;html=1;fontFamily=monospace;fontSize=12;fontColor=default;" parent="1" source="hCfFOBcKqYTTyQITyhyD-26" target="hCfFOBcKqYTTyQITyhyD-22" edge="1">
          <mxGeometry relative="1" as="geometry" />
        </mxCell>
        <mxCell id="hCfFOBcKqYTTyQITyhyD-26" value="E = a" style="rounded=1;whiteSpace=wrap;html=1;fillColor=#333333;fontFamily=monospace;" parent="1" vertex="1">
          <mxGeometry x="395" y="170" width="50" height="40" as="geometry" />
        </mxCell>
        <mxCell id="hCfFOBcKqYTTyQITyhyD-27" style="edgeStyle=orthogonalEdgeStyle;rounded=0;orthogonalLoop=1;jettySize=auto;html=1;fontFamily=monospace;fontSize=12;fontColor=default;" parent="1" source="hCfFOBcKqYTTyQITyhyD-28" target="hCfFOBcKqYTTyQITyhyD-23" edge="1">
          <mxGeometry relative="1" as="geometry" />
        </mxCell>
        <mxCell id="hCfFOBcKqYTTyQITyhyD-28" value="E = a" style="rounded=1;whiteSpace=wrap;html=1;fillColor=#333333;fontFamily=monospace;" parent="1" vertex="1">
          <mxGeometry x="535" y="250" width="50" height="40" as="geometry" />
        </mxCell>
        <mxCell id="hCfFOBcKqYTTyQITyhyD-29" style="edgeStyle=orthogonalEdgeStyle;rounded=0;orthogonalLoop=1;jettySize=auto;html=1;fontFamily=monospace;fontSize=12;fontColor=default;" parent="1" source="hCfFOBcKqYTTyQITyhyD-30" target="hCfFOBcKqYTTyQITyhyD-24" edge="1">
          <mxGeometry relative="1" as="geometry" />
        </mxCell>
        <mxCell id="hCfFOBcKqYTTyQITyhyD-30" value="E = a" style="rounded=1;whiteSpace=wrap;html=1;fillColor=#333333;fontFamily=monospace;" parent="1" vertex="1">
          <mxGeometry x="675" y="250" width="50" height="40" as="geometry" />
        </mxCell>
        <mxCell id="hCfFOBcKqYTTyQITyhyD-31" style="edgeStyle=orthogonalEdgeStyle;rounded=0;orthogonalLoop=1;jettySize=auto;html=1;fontFamily=monospace;fontSize=12;fontColor=default;" parent="1" source="hCfFOBcKqYTTyQITyhyD-34" target="hCfFOBcKqYTTyQITyhyD-40" edge="1">
          <mxGeometry relative="1" as="geometry" />
        </mxCell>
        <mxCell id="hCfFOBcKqYTTyQITyhyD-32" style="rounded=0;orthogonalLoop=1;jettySize=auto;html=1;fontFamily=monospace;fontSize=12;fontColor=default;" parent="1" source="hCfFOBcKqYTTyQITyhyD-34" target="hCfFOBcKqYTTyQITyhyD-26" edge="1">
          <mxGeometry relative="1" as="geometry" />
        </mxCell>
        <mxCell id="hCfFOBcKqYTTyQITyhyD-33" style="rounded=0;orthogonalLoop=1;jettySize=auto;html=1;fontFamily=monospace;fontSize=12;fontColor=default;" parent="1" source="hCfFOBcKqYTTyQITyhyD-34" target="hCfFOBcKqYTTyQITyhyD-39" edge="1">
          <mxGeometry relative="1" as="geometry" />
        </mxCell>
        <mxCell id="hCfFOBcKqYTTyQITyhyD-34" value="E = E+E" style="rounded=1;whiteSpace=wrap;html=1;fillColor=#333333;fontFamily=monospace;" parent="1" vertex="1">
          <mxGeometry x="460" y="90" width="60" height="40" as="geometry" />
        </mxCell>
        <mxCell id="hCfFOBcKqYTTyQITyhyD-35" value="*" style="rounded=1;whiteSpace=wrap;html=1;fillColor=#333333;fontFamily=monospace;" parent="1" vertex="1">
          <mxGeometry x="610" y="330" width="40" height="40" as="geometry" />
        </mxCell>
        <mxCell id="hCfFOBcKqYTTyQITyhyD-36" style="edgeStyle=none;shape=connector;rounded=0;orthogonalLoop=1;jettySize=auto;html=1;strokeColor=default;align=center;verticalAlign=middle;fontFamily=monospace;fontSize=12;fontColor=default;labelBackgroundColor=default;endArrow=classic;" parent="1" source="hCfFOBcKqYTTyQITyhyD-39" target="hCfFOBcKqYTTyQITyhyD-35" edge="1">
          <mxGeometry relative="1" as="geometry" />
        </mxCell>
        <mxCell id="hCfFOBcKqYTTyQITyhyD-37" style="edgeStyle=none;shape=connector;rounded=0;orthogonalLoop=1;jettySize=auto;html=1;strokeColor=default;align=center;verticalAlign=middle;fontFamily=monospace;fontSize=12;fontColor=default;labelBackgroundColor=default;endArrow=classic;" parent="1" source="hCfFOBcKqYTTyQITyhyD-39" target="hCfFOBcKqYTTyQITyhyD-30" edge="1">
          <mxGeometry relative="1" as="geometry" />
        </mxCell>
        <mxCell id="hCfFOBcKqYTTyQITyhyD-38" style="edgeStyle=none;shape=connector;rounded=0;orthogonalLoop=1;jettySize=auto;html=1;strokeColor=default;align=center;verticalAlign=middle;fontFamily=monospace;fontSize=12;fontColor=default;labelBackgroundColor=default;endArrow=classic;" parent="1" source="hCfFOBcKqYTTyQITyhyD-39" target="hCfFOBcKqYTTyQITyhyD-28" edge="1">
          <mxGeometry relative="1" as="geometry" />
        </mxCell>
        <mxCell id="hCfFOBcKqYTTyQITyhyD-39" value="E = E*E" style="rounded=1;whiteSpace=wrap;html=1;fillColor=#333333;fontFamily=monospace;" parent="1" vertex="1">
          <mxGeometry x="600" y="170" width="60" height="40" as="geometry" />
        </mxCell>
        <mxCell id="hCfFOBcKqYTTyQITyhyD-40" value="+" style="rounded=1;whiteSpace=wrap;html=1;fillColor=#333333;fontFamily=monospace;" parent="1" vertex="1">
          <mxGeometry x="470" y="330" width="40" height="40" as="geometry" />
        </mxCell>
        <mxCell id="SvF_JcrMG-eiqhwrqk2K-2" style="edgeStyle=orthogonalEdgeStyle;rounded=0;orthogonalLoop=1;jettySize=auto;html=1;" edge="1" parent="1" source="SvF_JcrMG-eiqhwrqk2K-1" target="hCfFOBcKqYTTyQITyhyD-13">
          <mxGeometry relative="1" as="geometry" />
        </mxCell>
        <mxCell id="SvF_JcrMG-eiqhwrqk2K-1" value="S = E" style="rounded=1;whiteSpace=wrap;html=1;fillColor=#333333;fontFamily=monospace;" vertex="1" parent="1">
          <mxGeometry x="217.5" y="10" width="45" height="40" as="geometry" />
        </mxCell>
        <mxCell id="SvF_JcrMG-eiqhwrqk2K-4" style="edgeStyle=orthogonalEdgeStyle;rounded=0;orthogonalLoop=1;jettySize=auto;html=1;" edge="1" parent="1" source="SvF_JcrMG-eiqhwrqk2K-3" target="hCfFOBcKqYTTyQITyhyD-34">
          <mxGeometry relative="1" as="geometry" />
        </mxCell>
        <mxCell id="SvF_JcrMG-eiqhwrqk2K-3" value="S = E" style="rounded=1;whiteSpace=wrap;html=1;fillColor=#333333;fontFamily=monospace;" vertex="1" parent="1">
          <mxGeometry x="467.5" y="10" width="45" height="40" as="geometry" />
        </mxCell>
      </root>
    </mxGraphModel>
  </diagram>
</mxfile>
